<mxfile host="app.diagrams.net" agent="Mozilla/5.0 (Windows NT 10.0; Win64; x64) AppleWebKit/537.36 (KHTML, like Gecko) Chrome/134.0.0.0 Safari/537.36" version="26.1.3">
  <diagram name="1 oldal" id="Npns3-owxtk5o4aB9T7W">
    <mxGraphModel dx="708" dy="423" grid="1" gridSize="10" guides="1" tooltips="1" connect="1" arrows="1" fold="1" page="1" pageScale="1" pageWidth="827" pageHeight="1169" math="0" shadow="0">
      <root>
        <mxCell id="0" />
        <mxCell id="1" parent="0" />
        <mxCell id="NriWCppynzRU80gm3Kc9-56" value="" style="rounded=0;whiteSpace=wrap;html=1;fillColor=#f8cecc;strokeColor=#b85450;" vertex="1" parent="1">
          <mxGeometry x="207.5" y="450" width="95" height="60" as="geometry" />
        </mxCell>
        <mxCell id="NriWCppynzRU80gm3Kc9-53" value="" style="whiteSpace=wrap;html=1;aspect=fixed;" vertex="1" parent="1">
          <mxGeometry x="215" y="435" width="80" height="80" as="geometry" />
        </mxCell>
        <mxCell id="NriWCppynzRU80gm3Kc9-1" value="" style="rounded=0;whiteSpace=wrap;html=1;" vertex="1" parent="1">
          <mxGeometry x="160" width="440" height="600" as="geometry" />
        </mxCell>
        <mxCell id="NriWCppynzRU80gm3Kc9-2" value="header" style="rounded=0;whiteSpace=wrap;html=1;" vertex="1" parent="1">
          <mxGeometry x="160" width="440" height="80" as="geometry" />
        </mxCell>
        <mxCell id="NriWCppynzRU80gm3Kc9-3" value="nav" style="rounded=0;whiteSpace=wrap;html=1;" vertex="1" parent="1">
          <mxGeometry x="160" y="80" width="440" height="40" as="geometry" />
        </mxCell>
        <mxCell id="NriWCppynzRU80gm3Kc9-8" value="section" style="rounded=0;whiteSpace=wrap;html=1;" vertex="1" parent="1">
          <mxGeometry x="200" y="270" width="360" height="110" as="geometry" />
        </mxCell>
        <mxCell id="NriWCppynzRU80gm3Kc9-15" value="section" style="rounded=0;whiteSpace=wrap;html=1;" vertex="1" parent="1">
          <mxGeometry x="200" y="420" width="110" height="110" as="geometry" />
        </mxCell>
        <mxCell id="NriWCppynzRU80gm3Kc9-29" value="section" style="whiteSpace=wrap;html=1;aspect=fixed;" vertex="1" parent="1">
          <mxGeometry x="450" y="420" width="110" height="110" as="geometry" />
        </mxCell>
        <mxCell id="NriWCppynzRU80gm3Kc9-30" value="section" style="whiteSpace=wrap;html=1;aspect=fixed;" vertex="1" parent="1">
          <mxGeometry x="325" y="420" width="110" height="110" as="geometry" />
        </mxCell>
        <mxCell id="NriWCppynzRU80gm3Kc9-32" value="footer" style="rounded=0;whiteSpace=wrap;html=1;" vertex="1" parent="1">
          <mxGeometry x="160" y="560" width="440" height="40" as="geometry" />
        </mxCell>
        <mxCell id="NriWCppynzRU80gm3Kc9-34" value="img" style="rounded=1;whiteSpace=wrap;html=1;" vertex="1" parent="1">
          <mxGeometry x="414" y="285" width="135" height="80" as="geometry" />
        </mxCell>
        <mxCell id="NriWCppynzRU80gm3Kc9-40" value="h1" style="rounded=0;whiteSpace=wrap;html=1;" vertex="1" parent="1">
          <mxGeometry x="357.5" y="10" width="45" height="20" as="geometry" />
        </mxCell>
        <mxCell id="NriWCppynzRU80gm3Kc9-41" value="section" style="rounded=0;whiteSpace=wrap;html=1;" vertex="1" parent="1">
          <mxGeometry x="200" y="140" width="360" height="110" as="geometry" />
        </mxCell>
        <mxCell id="NriWCppynzRU80gm3Kc9-35" value="img" style="rounded=1;whiteSpace=wrap;html=1;" vertex="1" parent="1">
          <mxGeometry x="414" y="155" width="135" height="80" as="geometry" />
        </mxCell>
        <mxCell id="NriWCppynzRU80gm3Kc9-42" value="h2" style="rounded=0;whiteSpace=wrap;html=1;" vertex="1" parent="1">
          <mxGeometry x="358.75" y="50" width="42.5" height="20" as="geometry" />
        </mxCell>
        <mxCell id="NriWCppynzRU80gm3Kc9-44" value="a" style="rounded=0;whiteSpace=wrap;html=1;" vertex="1" parent="1">
          <mxGeometry x="280" y="85" width="60" height="30" as="geometry" />
        </mxCell>
        <mxCell id="NriWCppynzRU80gm3Kc9-46" value="a" style="rounded=0;whiteSpace=wrap;html=1;" vertex="1" parent="1">
          <mxGeometry x="500" y="85" width="60" height="30" as="geometry" />
        </mxCell>
        <mxCell id="NriWCppynzRU80gm3Kc9-47" value="a" style="rounded=0;whiteSpace=wrap;html=1;" vertex="1" parent="1">
          <mxGeometry x="190" y="85" width="60" height="30" as="geometry" />
        </mxCell>
        <mxCell id="NriWCppynzRU80gm3Kc9-48" value="a" style="rounded=0;whiteSpace=wrap;html=1;" vertex="1" parent="1">
          <mxGeometry x="414" y="85" width="60" height="30" as="geometry" />
        </mxCell>
        <mxCell id="NriWCppynzRU80gm3Kc9-49" value="h3" style="rounded=0;whiteSpace=wrap;html=1;" vertex="1" parent="1">
          <mxGeometry x="210" y="150" width="80" height="30" as="geometry" />
        </mxCell>
        <mxCell id="NriWCppynzRU80gm3Kc9-50" value="h3" style="rounded=0;whiteSpace=wrap;html=1;" vertex="1" parent="1">
          <mxGeometry x="210" y="280" width="80" height="30" as="geometry" />
        </mxCell>
        <mxCell id="NriWCppynzRU80gm3Kc9-54" value="p&lt;span style=&quot;color: rgba(0, 0, 0, 0); font-family: monospace; font-size: 0px; text-align: start; text-wrap-mode: nowrap;&quot;&gt;%3CmxGraphModel%3E%3Croot%3E%3CmxCell%20id%3D%220%22%2F%3E%3CmxCell%20id%3D%221%22%20parent%3D%220%22%2F%3E%3CmxCell%20id%3D%222%22%20value%3D%22h3%22%20style%3D%22rounded%3D0%3BwhiteSpace%3Dwrap%3Bhtml%3D1%3B%22%20vertex%3D%221%22%20parent%3D%221%22%3E%3CmxGeometry%20x%3D%22210%22%20y%3D%22150%22%20width%3D%2280%22%20height%3D%2230%22%20as%3D%22geometry%22%2F%3E%3C%2FmxCell%3E%3C%2Froot%3E%3C%2FmxGraphModel%3E&lt;/span&gt;" style="rounded=0;whiteSpace=wrap;html=1;" vertex="1" parent="1">
          <mxGeometry x="210" y="190" width="120" height="50" as="geometry" />
        </mxCell>
        <mxCell id="NriWCppynzRU80gm3Kc9-55" value="p&lt;span style=&quot;color: rgba(0, 0, 0, 0); font-family: monospace; font-size: 0px; text-align: start; text-wrap-mode: nowrap;&quot;&gt;%3CmxGraphModel%3E%3Croot%3E%3CmxCell%20id%3D%220%22%2F%3E%3CmxCell%20id%3D%221%22%20parent%3D%220%22%2F%3E%3CmxCell%20id%3D%222%22%20value%3D%22h3%22%20style%3D%22rounded%3D0%3BwhiteSpace%3Dwrap%3Bhtml%3D1%3B%22%20vertex%3D%221%22%20parent%3D%221%22%3E%3CmxGeometry%20x%3D%22210%22%20y%3D%22150%22%20width%3D%2280%22%20height%3D%2230%22%20as%3D%22geometry%22%2F%3E%3C%2FmxCell%3E%3C%2Froot%3E%3C%2FmxGraphModel%3E&lt;/span&gt;" style="rounded=0;whiteSpace=wrap;html=1;" vertex="1" parent="1">
          <mxGeometry x="210" y="320" width="120" height="50" as="geometry" />
        </mxCell>
        <mxCell id="NriWCppynzRU80gm3Kc9-74" style="edgeStyle=orthogonalEdgeStyle;rounded=0;orthogonalLoop=1;jettySize=auto;html=1;exitX=1;exitY=1;exitDx=0;exitDy=0;" edge="1" parent="1" source="NriWCppynzRU80gm3Kc9-61">
          <mxGeometry relative="1" as="geometry">
            <mxPoint x="437.28571428571445" y="637.0000000000001" as="targetPoint" />
          </mxGeometry>
        </mxCell>
        <mxCell id="NriWCppynzRU80gm3Kc9-61" value="" style="rounded=0;whiteSpace=wrap;html=1;rotation=-90;" vertex="1" parent="1">
          <mxGeometry x="183.75" y="731.25" width="347.5" height="160" as="geometry" />
        </mxCell>
        <mxCell id="NriWCppynzRU80gm3Kc9-63" value="header" style="rounded=0;whiteSpace=wrap;html=1;" vertex="1" parent="1">
          <mxGeometry x="277.5" y="640" width="160" height="50" as="geometry" />
        </mxCell>
        <mxCell id="NriWCppynzRU80gm3Kc9-64" value="h1&lt;span style=&quot;color: rgba(0, 0, 0, 0); font-family: monospace; font-size: 0px; text-align: start; text-wrap-mode: nowrap;&quot;&gt;%3CmxGraphModel%3E%3Croot%3E%3CmxCell%20id%3D%220%22%2F%3E%3CmxCell%20id%3D%221%22%20parent%3D%220%22%2F%3E%3CmxCell%20id%3D%222%22%20value%3D%22p%26lt%3Bspan%20style%3D%26quot%3Bcolor%3A%20rgba(0%2C%200%2C%200%2C%200)%3B%20font-family%3A%20monospace%3B%20font-size%3A%200px%3B%20text-align%3A%20start%3B%20text-wrap-mode%3A%20nowrap%3B%26quot%3B%26gt%3B%253CmxGraphModel%253E%253Croot%253E%253CmxCell%2520id%253D%25220%2522%252F%253E%253CmxCell%2520id%253D%25221%2522%2520parent%253D%25220%2522%252F%253E%253CmxCell%2520id%253D%25222%2522%2520value%253D%2522h3%2522%2520style%253D%2522rounded%253D0%253BwhiteSpace%253Dwrap%253Bhtml%253D1%253B%2522%2520vertex%253D%25221%2522%2520parent%253D%25221%2522%253E%253CmxGeometry%2520x%253D%2522210%2522%2520y%253D%2522150%2522%2520width%253D%252280%2522%2520height%253D%252230%2522%2520as%253D%2522geometry%2522%252F%253E%253C%252FmxCell%253E%253C%252Froot%253E%253C%252FmxGraphModel%253E%26lt%3B%2Fspan%26gt%3B%22%20style%3D%22rounded%3D0%3BwhiteSpace%3Dwrap%3Bhtml%3D1%3B%22%20vertex%3D%221%22%20parent%3D%221%22%3E%3CmxGeometry%20x%3D%22210%22%20y%3D%22190%22%20width%3D%22120%22%20height%3D%2250%22%20as%3D%22geometry%22%2F%3E%3C%2FmxCell%3E%3C%2Froot%3E%3C%2FmxGraphModel%3E&lt;/span&gt;&lt;span style=&quot;color: rgba(0, 0, 0, 0); font-family: monospace; font-size: 0px; text-align: start; text-wrap-mode: nowrap;&quot;&gt;%3CmxGraphModel%3E%3Croot%3E%3CmxCell%20id%3D%220%22%2F%3E%3CmxCell%20id%3D%221%22%20parent%3D%220%22%2F%3E%3CmxCell%20id%3D%222%22%20value%3D%22p%26lt%3Bspan%20style%3D%26quot%3Bcolor%3A%20rgba(0%2C%200%2C%200%2C%200)%3B%20font-family%3A%20monospace%3B%20font-size%3A%200px%3B%20text-align%3A%20start%3B%20text-wrap-mode%3A%20nowrap%3B%26quot%3B%26gt%3B%253CmxGraphModel%253E%253Croot%253E%253CmxCell%2520id%253D%25220%2522%252F%253E%253CmxCell%2520id%253D%25221%2522%2520parent%253D%25220%2522%252F%253E%253CmxCell%2520id%253D%25222%2522%2520value%253D%2522h3%2522%2520style%253D%2522rounded%253D0%253BwhiteSpace%253Dwrap%253Bhtml%253D1%253B%2522%2520vertex%253D%25221%2522%2520parent%253D%25221%2522%253E%253CmxGeometry%2520x%253D%2522210%2522%2520y%253D%2522150%2522%2520width%253D%252280%2522%2520height%253D%252230%2522%2520as%253D%2522geometry%2522%252F%253E%253C%252FmxCell%253E%253C%252Froot%253E%253C%252FmxGraphModel%253E%26lt%3B%2Fspan%26gt%3B%22%20style%3D%22rounded%3D0%3BwhiteSpace%3Dwrap%3Bhtml%3D1%3B%22%20vertex%3D%221%22%20parent%3D%221%22%3E%3CmxGeometry%20x%3D%22210%22%20y%3D%22190%22%20width%3D%22120%22%20height%3D%2250%22%20as%3D%22geometry%22%2F%3E%3C%2FmxCell%3E%3C%2Froot%3E%3C%2FmxGraphModel%3E&lt;/span&gt;" style="rounded=0;whiteSpace=wrap;html=1;" vertex="1" parent="1">
          <mxGeometry x="335" y="640" width="45" height="20" as="geometry" />
        </mxCell>
        <mxCell id="NriWCppynzRU80gm3Kc9-69" value="h2" style="rounded=0;whiteSpace=wrap;html=1;" vertex="1" parent="1">
          <mxGeometry x="337.5" y="670" width="45" height="20" as="geometry" />
        </mxCell>
        <mxCell id="NriWCppynzRU80gm3Kc9-70" value="" style="rounded=0;whiteSpace=wrap;html=1;" vertex="1" parent="1">
          <mxGeometry x="297.5" y="730" width="120" height="60" as="geometry" />
        </mxCell>
        <mxCell id="NriWCppynzRU80gm3Kc9-72" value="h3&lt;span style=&quot;color: rgba(0, 0, 0, 0); font-family: monospace; font-size: 0px; text-align: start; text-wrap-mode: nowrap;&quot;&gt;%3CmxGraphModel%3E%3Croot%3E%3CmxCell%20id%3D%220%22%2F%3E%3CmxCell%20id%3D%221%22%20parent%3D%220%22%2F%3E%3CmxCell%20id%3D%222%22%20value%3D%22h1%26lt%3Bspan%20style%3D%26quot%3Bcolor%3A%20rgba(0%2C%200%2C%200%2C%200)%3B%20font-family%3A%20monospace%3B%20font-size%3A%200px%3B%20text-align%3A%20start%3B%20text-wrap-mode%3A%20nowrap%3B%26quot%3B%26gt%3B%253CmxGraphModel%253E%253Croot%253E%253CmxCell%2520id%253D%25220%2522%252F%253E%253CmxCell%2520id%253D%25221%2522%2520parent%253D%25220%2522%252F%253E%253CmxCell%2520id%253D%25222%2522%2520value%253D%2522p%2526lt%253Bspan%2520style%253D%2526quot%253Bcolor%253A%2520rgba(0%252C%25200%252C%25200%252C%25200)%253B%2520font-family%253A%2520monospace%253B%2520font-size%253A%25200px%253B%2520text-align%253A%2520start%253B%2520text-wrap-mode%253A%2520nowrap%253B%2526quot%253B%2526gt%253B%25253CmxGraphModel%25253E%25253Croot%25253E%25253CmxCell%252520id%25253D%2525220%252522%25252F%25253E%25253CmxCell%252520id%25253D%2525221%252522%252520parent%25253D%2525220%252522%25252F%25253E%25253CmxCell%252520id%25253D%2525222%252522%252520value%25253D%252522h3%252522%252520style%25253D%252522rounded%25253D0%25253BwhiteSpace%25253Dwrap%25253Bhtml%25253D1%25253B%252522%252520vertex%25253D%2525221%252522%252520parent%25253D%2525221%252522%25253E%25253CmxGeometry%252520x%25253D%252522210%252522%252520y%25253D%252522150%252522%252520width%25253D%25252280%252522%252520height%25253D%25252230%252522%252520as%25253D%252522geometry%252522%25252F%25253E%25253C%25252FmxCell%25253E%25253C%25252Froot%25253E%25253C%25252FmxGraphModel%25253E%2526lt%253B%252Fspan%2526gt%253B%2522%2520style%253D%2522rounded%253D0%253BwhiteSpace%253Dwrap%253Bhtml%253D1%253B%2522%2520vertex%253D%25221%2522%2520parent%253D%25221%2522%253E%253CmxGeometry%2520x%253D%2522210%2522%2520y%253D%2522190%2522%2520width%253D%2522120%2522%2520height%253D%252250%2522%2520as%253D%2522geometry%2522%252F%253E%253C%252FmxCell%253E%253C%252Froot%253E%253C%252FmxGraphModel%253E%26lt%3B%2Fspan%26gt%3B%26lt%3Bspan%20style%3D%26quot%3Bcolor%3A%20rgba(0%2C%200%2C%200%2C%200)%3B%20font-family%3A%20monospace%3B%20font-size%3A%200px%3B%20text-align%3A%20start%3B%20text-wrap-mode%3A%20nowrap%3B%26quot%3B%26gt%3B%253CmxGraphModel%253E%253Croot%253E%253CmxCell%2520id%253D%25220%2522%252F%253E%253CmxCell%2520id%253D%25221%2522%2520parent%253D%25220%2522%252F%253E%253CmxCell%2520id%253D%25222%2522%2520value%253D%2522p%2526lt%253Bspan%2520style%253D%2526quot%253Bcolor%253A%2520rgba(0%252C%25200%252C%25200%252C%25200)%253B%2520font-family%253A%2520monospace%253B%2520font-size%253A%25200px%253B%2520text-align%253A%2520start%253B%2520text-wrap-mode%253A%2520nowrap%253B%2526quot%253B%2526gt%253B%25253CmxGraphModel%25253E%25253Croot%25253E%25253CmxCell%252520id%25253D%2525220%252522%25252F%25253E%25253CmxCell%252520id%25253D%2525221%252522%252520parent%25253D%2525220%252522%25252F%25253E%25253CmxCell%252520id%25253D%2525222%252522%252520value%25253D%252522h3%252522%252520style%25253D%252522rounded%25253D0%25253BwhiteSpace%25253Dwrap%25253Bhtml%25253D1%25253B%252522%252520vertex%25253D%2525221%252522%252520parent%25253D%2525221%252522%25253E%25253CmxGeometry%252520x%25253D%252522210%252522%252520y%25253D%252522150%252522%252520width%25253D%25252280%252522%252520height%25253D%25252230%252522%252520as%25253D%252522geometry%252522%25252F%25253E%25253C%25252FmxCell%25253E%25253C%25252Froot%25253E%25253C%25252FmxGraphModel%25253E%2526lt%253B%252Fspan%2526gt%253B%2522%2520style%253D%2522rounded%253D0%253BwhiteSpace%253Dwrap%253Bhtml%253D1%253B%2522%2520vertex%253D%25221%2522%2520parent%253D%25221%2522%253E%253CmxGeometry%2520x%253D%2522210%2522%2520y%253D%2522190%2522%2520width%253D%2522120%2522%2520height%253D%252250%2522%2520as%253D%2522geometry%2522%252F%253E%253C%252FmxCell%253E%253C%252Froot%253E%253C%252FmxGraphModel%253E%26lt%3B%2Fspan%26gt%3B%22%20style%3D%22rounded%3D0%3BwhiteSpace%3Dwrap%3Bhtml%3D1%3B%22%20vertex%3D%221%22%20parent%3D%221%22%3E%3CmxGeometry%20x%3D%22335%22%20y%3D%22640%22%20width%3D%2245%22%20height%3D%2220%22%20as%3D%22geometry%22%2F%3E%3C%2FmxCell%3E%3C%2Froot%3E%3C%2FmxGraphModel%3E&lt;/span&gt;&lt;span style=&quot;color: rgba(0, 0, 0, 0); font-family: monospace; font-size: 0px; text-align: start; text-wrap-mode: nowrap;&quot;&gt;%3CmxGraphModel%3E%3Croot%3E%3CmxCell%20id%3D%220%22%2F%3E%3CmxCell%20id%3D%221%22%20parent%3D%220%22%2F%3E%3CmxCell%20id%3D%222%22%20value%3D%22h1%26lt%3Bspan%20style%3D%26quot%3Bcolor%3A%20rgba(0%2C%200%2C%200%2C%200)%3B%20font-family%3A%20monospace%3B%20font-size%3A%200px%3B%20text-align%3A%20start%3B%20text-wrap-mode%3A%20nowrap%3B%26quot%3B%26gt%3B%253CmxGraphModel%253E%253Croot%253E%253CmxCell%2520id%253D%25220%2522%252F%253E%253CmxCell%2520id%253D%25221%2522%2520parent%253D%25220%2522%252F%253E%253CmxCell%2520id%253D%25222%2522%2520value%253D%2522p%2526lt%253Bspan%2520style%253D%2526quot%253Bcolor%253A%2520rgba(0%252C%25200%252C%25200%252C%25200)%253B%2520font-family%253A%2520monospace%253B%2520font-size%253A%25200px%253B%2520text-align%253A%2520start%253B%2520text-wrap-mode%253A%2520nowrap%253B%2526quot%253B%2526gt%253B%25253CmxGraphModel%25253E%25253Croot%25253E%25253CmxCell%252520id%25253D%2525220%252522%25252F%25253E%25253CmxCell%252520id%25253D%2525221%252522%252520parent%25253D%2525220%252522%25252F%25253E%25253CmxCell%252520id%25253D%2525222%252522%252520value%25253D%252522h3%252522%252520style%25253D%252522rounded%25253D0%25253BwhiteSpace%25253Dwrap%25253Bhtml%25253D1%25253B%252522%252520vertex%25253D%2525221%252522%252520parent%25253D%2525221%252522%25253E%25253CmxGeometry%252520x%25253D%252522210%252522%252520y%25253D%252522150%252522%252520width%25253D%25252280%252522%252520height%25253D%25252230%252522%252520as%25253D%252522geometry%252522%25252F%25253E%25253C%25252FmxCell%25253E%25253C%25252Froot%25253E%25253C%25252FmxGraphModel%25253E%2526lt%253B%252Fspan%2526gt%253B%2522%2520style%253D%2522rounded%253D0%253BwhiteSpace%253Dwrap%253Bhtml%253D1%253B%2522%2520vertex%253D%25221%2522%2520parent%253D%25221%2522%253E%253CmxGeometry%2520x%253D%2522210%2522%2520y%253D%2522190%2522%2520width%253D%2522120%2522%2520height%253D%252250%2522%2520as%253D%2522geometry%2522%252F%253E%253C%252FmxCell%253E%253C%252Froot%253E%253C%252FmxGraphModel%253E%26lt%3B%2Fspan%26gt%3B%26lt%3Bspan%20style%3D%26quot%3Bcolor%3A%20rgba(0%2C%200%2C%200%2C%200)%3B%20font-family%3A%20monospace%3B%20font-size%3A%200px%3B%20text-align%3A%20start%3B%20text-wrap-mode%3A%20nowrap%3B%26quot%3B%26gt%3B%253CmxGraphModel%253E%253Croot%253E%253CmxCell%2520id%253D%25220%2522%252F%253E%253CmxCell%2520id%253D%25221%2522%2520parent%253D%25220%2522%252F%253E%253CmxCell%2520id%253D%25222%2522%2520value%253D%2522p%2526lt%253Bspan%2520style%253D%2526quot%253Bcolor%253A%2520rgba(0%252C%25200%252C%25200%252C%25200)%253B%2520font-family%253A%2520monospace%253B%2520font-size%253A%25200px%253B%2520text-align%253A%2520start%253B%2520text-wrap-mode%253A%2520nowrap%253B%2526quot%253B%2526gt%253B%25253CmxGraphModel%25253E%25253Croot%25253E%25253CmxCell%252520id%25253D%2525220%252522%25252F%25253E%25253CmxCell%252520id%25253D%2525221%252522%252520parent%25253D%2525220%252522%25252F%25253E%25253CmxCell%252520id%25253D%2525222%252522%252520value%25253D%252522h3%252522%252520style%25253D%252522rounded%25253D0%25253BwhiteSpace%25253Dwrap%25253Bhtml%25253D1%25253B%252522%252520vertex%25253D%2525221%252522%252520parent%25253D%2525221%252522%25253E%25253CmxGeometry%252520x%25253D%252522210%252522%252520y%25253D%252522150%252522%252520width%25253D%25252280%252522%252520height%25253D%25252230%252522%252520as%25253D%252522geometry%252522%25252F%25253E%25253C%25252FmxCell%25253E%25253C%25252Froot%25253E%25253C%25252FmxGraphModel%25253E%2526lt%253B%252Fspan%2526gt%253B%2522%2520style%253D%2522rounded%253D0%253BwhiteSpace%253Dwrap%253Bhtml%253D1%253B%2522%2520vertex%253D%25221%2522%2520parent%253D%25221%2522%253E%253CmxGeometry%2520x%253D%2522210%2522%2520y%253D%2522190%2522%2520width%253D%2522120%2522%2520height%253D%252250%2522%2520as%253D%2522geometry%2522%252F%253E%253C%252FmxCell%253E%253C%252Froot%253E%253C%252FmxGraphModel%253E%26lt%3B%2Fspan%26gt%3B%22%20style%3D%22rounded%3D0%3BwhiteSpace%3Dwrap%3Bhtml%3D1%3B%22%20vertex%3D%221%22%20parent%3D%221%22%3E%3CmxGeometry%20x%3D%22335%22%20y%3D%22640%22%20width%3D%2245%22%20height%3D%2220%22%20as%3D%22geometry%22%2F%3E%3C%2FmxCell%3E%3C%2Froot%3E%3C%2FmxGraphModel%3E&lt;/span&gt;" style="rounded=0;whiteSpace=wrap;html=1;" vertex="1" parent="1">
          <mxGeometry x="302.5" y="820" width="42.5" height="20" as="geometry" />
        </mxCell>
        <mxCell id="NriWCppynzRU80gm3Kc9-73" value="" style="rounded=0;whiteSpace=wrap;html=1;" vertex="1" parent="1">
          <mxGeometry x="297.5" y="800" width="120" height="60" as="geometry" />
        </mxCell>
        <mxCell id="NriWCppynzRU80gm3Kc9-76" value="img&lt;span style=&quot;color: rgba(0, 0, 0, 0); font-family: monospace; font-size: 0px; text-align: start; text-wrap-mode: nowrap;&quot;&gt;%3CmxGraphModel%3E%3Croot%3E%3CmxCell%20id%3D%220%22%2F%3E%3CmxCell%20id%3D%221%22%20parent%3D%220%22%2F%3E%3CmxCell%20id%3D%222%22%20value%3D%22h3%26lt%3Bspan%20style%3D%26quot%3Bcolor%3A%20rgba(0%2C%200%2C%200%2C%200)%3B%20font-family%3A%20monospace%3B%20font-size%3A%200px%3B%20text-align%3A%20start%3B%20text-wrap-mode%3A%20nowrap%3B%26quot%3B%26gt%3B%253CmxGraphModel%253E%253Croot%253E%253CmxCell%2520id%253D%25220%2522%252F%253E%253CmxCell%2520id%253D%25221%2522%2520parent%253D%25220%2522%252F%253E%253CmxCell%2520id%253D%25222%2522%2520value%253D%2522h1%2526lt%253Bspan%2520style%253D%2526quot%253Bcolor%253A%2520rgba(0%252C%25200%252C%25200%252C%25200)%253B%2520font-family%253A%2520monospace%253B%2520font-size%253A%25200px%253B%2520text-align%253A%2520start%253B%2520text-wrap-mode%253A%2520nowrap%253B%2526quot%253B%2526gt%253B%25253CmxGraphModel%25253E%25253Croot%25253E%25253CmxCell%252520id%25253D%2525220%252522%25252F%25253E%25253CmxCell%252520id%25253D%2525221%252522%252520parent%25253D%2525220%252522%25252F%25253E%25253CmxCell%252520id%25253D%2525222%252522%252520value%25253D%252522p%252526lt%25253Bspan%252520style%25253D%252526quot%25253Bcolor%25253A%252520rgba(0%25252C%2525200%25252C%2525200%25252C%2525200)%25253B%252520font-family%25253A%252520monospace%25253B%252520font-size%25253A%2525200px%25253B%252520text-align%25253A%252520start%25253B%252520text-wrap-mode%25253A%252520nowrap%25253B%252526quot%25253B%252526gt%25253B%2525253CmxGraphModel%2525253E%2525253Croot%2525253E%2525253CmxCell%25252520id%2525253D%252525220%25252522%2525252F%2525253E%2525253CmxCell%25252520id%2525253D%252525221%25252522%25252520parent%2525253D%252525220%25252522%2525252F%2525253E%2525253CmxCell%25252520id%2525253D%252525222%25252522%25252520value%2525253D%25252522h3%25252522%25252520style%2525253D%25252522rounded%2525253D0%2525253BwhiteSpace%2525253Dwrap%2525253Bhtml%2525253D1%2525253B%25252522%25252520vertex%2525253D%252525221%25252522%25252520parent%2525253D%252525221%25252522%2525253E%2525253CmxGeometry%25252520x%2525253D%25252522210%25252522%25252520y%2525253D%25252522150%25252522%25252520width%2525253D%2525252280%25252522%25252520height%2525253D%2525252230%25252522%25252520as%2525253D%25252522geometry%25252522%2525252F%2525253E%2525253C%2525252FmxCell%2525253E%2525253C%2525252Froot%2525253E%2525253C%2525252FmxGraphModel%2525253E%252526lt%25253B%25252Fspan%252526gt%25253B%252522%252520style%25253D%252522rounded%25253D0%25253BwhiteSpace%25253Dwrap%25253Bhtml%25253D1%25253B%252522%252520vertex%25253D%2525221%252522%252520parent%25253D%2525221%252522%25253E%25253CmxGeometry%252520x%25253D%252522210%252522%252520y%25253D%252522190%252522%252520width%25253D%252522120%252522%252520height%25253D%25252250%252522%252520as%25253D%252522geometry%252522%25252F%25253E%25253C%25252FmxCell%25253E%25253C%25252Froot%25253E%25253C%25252FmxGraphModel%25253E%2526lt%253B%252Fspan%2526gt%253B%2526lt%253Bspan%2520style%253D%2526quot%253Bcolor%253A%2520rgba(0%252C%25200%252C%25200%252C%25200)%253B%2520font-family%253A%2520monospace%253B%2520font-size%253A%25200px%253B%2520text-align%253A%2520start%253B%2520text-wrap-mode%253A%2520nowrap%253B%2526quot%253B%2526gt%253B%25253CmxGraphModel%25253E%25253Croot%25253E%25253CmxCell%252520id%25253D%2525220%252522%25252F%25253E%25253CmxCell%252520id%25253D%2525221%252522%252520parent%25253D%2525220%252522%25252F%25253E%25253CmxCell%252520id%25253D%2525222%252522%252520value%25253D%252522p%252526lt%25253Bspan%252520style%25253D%252526quot%25253Bcolor%25253A%252520rgba(0%25252C%2525200%25252C%2525200%25252C%2525200)%25253B%252520font-family%25253A%252520monospace%25253B%252520font-size%25253A%2525200px%25253B%252520text-align%25253A%252520start%25253B%252520text-wrap-mode%25253A%252520nowrap%25253B%252526quot%25253B%252526gt%25253B%2525253CmxGraphModel%2525253E%2525253Croot%2525253E%2525253CmxCell%25252520id%2525253D%252525220%25252522%2525252F%2525253E%2525253CmxCell%25252520id%2525253D%252525221%25252522%25252520parent%2525253D%252525220%25252522%2525252F%2525253E%2525253CmxCell%25252520id%2525253D%252525222%25252522%25252520value%2525253D%25252522h3%25252522%25252520style%2525253D%25252522rounded%2525253D0%2525253BwhiteSpace%2525253Dwrap%2525253Bhtml%2525253D1%2525253B%25252522%25252520vertex%2525253D%252525221%25252522%25252520parent%2525253D%252525221%25252522%2525253E%2525253CmxGeometry%25252520x%2525253D%25252522210%25252522%25252520y%2525253D%25252522150%25252522%25252520width%2525253D%2525252280%25252522%25252520height%2525253D%2525252230%25252522%25252520as%2525253D%25252522geometry%25252522%2525252F%2525253E%2525253C%2525252FmxCell%2525253E%2525253C%2525252Froot%2525253E%2525253C%2525252FmxGraphModel%2525253E%252526lt%25253B%25252Fspan%252526gt%25253B%252522%252520style%25253D%252522rounded%25253D0%25253BwhiteSpace%25253Dwrap%25253Bhtml%25253D1%25253B%252522%252520vertex%25253D%2525221%252522%252520parent%25253D%2525221%252522%25253E%25253CmxGeometry%252520x%25253D%252522210%252522%252520y%25253D%252522190%252522%252520width%25253D%252522120%252522%252520height%25253D%25252250%252522%252520as%25253D%252522geometry%252522%25252F%25253E%25253C%25252FmxCell%25253E%25253C%25252Froot%25253E%25253C%25252FmxGraphModel%25253E%2526lt%253B%252Fspan%2526gt%253B%2522%2520style%253D%2522rounded%253D0%253BwhiteSpace%253Dwrap%253Bhtml%253D1%253B%2522%2520vertex%253D%25221%2522%2520parent%253D%25221%2522%253E%253CmxGeometry%2520x%253D%2522335%2522%2520y%253D%2522640%2522%2520width%253D%252245%2522%2520height%253D%252220%2522%2520as%253D%2522geometry%2522%252F%253E%253C%252FmxCell%253E%253C%252Froot%253E%253C%252FmxGraphModel%253E%26lt%3B%2Fspan%26gt%3B%26lt%3Bspan%20style%3D%26quot%3Bcolor%3A%20rgba(0%2C%200%2C%200%2C%200)%3B%20font-family%3A%20monospace%3B%20font-size%3A%200px%3B%20text-align%3A%20start%3B%20text-wrap-mode%3A%20nowrap%3B%26quot%3B%26gt%3B%253CmxGraphModel%253E%253Croot%253E%253CmxCell%2520id%253D%25220%2522%252F%253E%253CmxCell%2520id%253D%25221%2522%2520parent%253D%25220%2522%252F%253E%253CmxCell%2520id%253D%25222%2522%2520value%253D%2522h1%2526lt%253Bspan%2520style%253D%2526quot%253Bcolor%253A%2520rgba(0%252C%25200%252C%25200%252C%25200)%253B%2520font-family%253A%2520monospace%253B%2520font-size%253A%25200px%253B%2520text-align%253A%2520start%253B%2520text-wrap-mode%253A%2520nowrap%253B%2526quot%253B%2526gt%253B%25253CmxGraphModel%25253E%25253Croot%25253E%25253CmxCell%252520id%25253D%2525220%252522%25252F%25253E%25253CmxCell%252520id%25253D%2525221%252522%252520parent%25253D%2525220%252522%25252F%25253E%25253CmxCell%252520id%25253D%2525222%252522%252520value%25253D%252522p%252526lt%25253Bspan%252520style%25253D%252526quot%25253Bcolor%25253A%252520rgba(0%25252C%2525200%25252C%2525200%25252C%2525200)%25253B%252520font-family%25253A%252520monospace%25253B%252520font-size%25253A%2525200px%25253B%252520text-align%25253A%252520start%25253B%252520text-wrap-mode%25253A%252520nowrap%25253B%252526quot%25253B%252526gt%25253B%2525253CmxGraphModel%2525253E%2525253Croot%2525253E%2525253CmxCell%25252520id%2525253D%252525220%25252522%2525252F%2525253E%2525253CmxCell%25252520id%2525253D%252525221%25252522%25252520parent%2525253D%252525220%25252522%2525252F%2525253E%2525253CmxCell%25252520id%2525253D%252525222%25252522%25252520value%2525253D%25252522h3%25252522%25252520style%2525253D%25252522rounded%2525253D0%2525253BwhiteSpace%2525253Dwrap%2525253Bhtml%2525253D1%2525253B%25252522%25252520vertex%2525253D%252525221%25252522%25252520parent%2525253D%252525221%25252522%2525253E%2525253CmxGeometry%25252520x%2525253D%25252522210%25252522%25252520y%2525253D%25252522150%25252522%25252520width%2525253D%2525252280%25252522%25252520height%2525253D%2525252230%25252522%25252520as%2525253D%25252522geometry%25252522%2525252F%2525253E%2525253C%2525252FmxCell%2525253E%2525253C%2525252Froot%2525253E%2525253C%2525252FmxGraphModel%2525253E%252526lt%25253B%25252Fspan%252526gt%25253B%252522%252520style%25253D%252522rounded%25253D0%25253BwhiteSpace%25253Dwrap%25253Bhtml%25253D1%25253B%252522%252520vertex%25253D%2525221%252522%252520parent%25253D%2525221%252522%25253E%25253CmxGeometry%252520x%25253D%252522210%252522%252520y%25253D%252522190%252522%252520width%25253D%252522120%252522%252520height%25253D%25252250%252522%252520as%25253D%252522geometry%252522%25252F%25253E%25253C%25252FmxCell%25253E%25253C%25252Froot%25253E%25253C%25252FmxGraphModel%25253E%2526lt%253B%252Fspan%2526gt%253B%2526lt%253Bspan%2520style%253D%2526quot%253Bcolor%253A%2520rgba(0%252C%25200%252C%25200%252C%25200)%253B%2520font-family%253A%2520monospace%253B%2520font-size%253A%25200px%253B%2520text-align%253A%2520start%253B%2520text-wrap-mode%253A%2520nowrap%253B%2526quot%253B%2526gt%253B%25253CmxGraphModel%25253E%25253Croot%25253E%25253CmxCell%252520id%25253D%2525220%252522%25252F%25253E%25253CmxCell%252520id%25253D%2525221%252522%252520parent%25253D%2525220%252522%25252F%25253E%25253CmxCell%252520id%25253D%2525222%252522%252520value%25253D%252522p%252526lt%25253Bspan%252520style%25253D%252526quot%25253Bcolor%25253A%252520rgba(0%25252C%2525200%25252C%2525200%25252C%2525200)%25253B%252520font-family%25253A%252520monospace%25253B%252520font-size%25253A%2525200px%25253B%252520text-align%25253A%252520start%25253B%252520text-wrap-mode%25253A%252520nowrap%25253B%252526quot%25253B%252526gt%25253B%2525253CmxGraphModel%2525253E%2525253Croot%2525253E%2525253CmxCell%25252520id%2525253D%252525220%25252522%2525252F%2525253E%2525253CmxCell%25252520id%2525253D%252525221%25252522%25252520parent%2525253D%252525220%25252522%2525252F%2525253E%2525253CmxCell%25252520id%2525253D%252525222%25252522%25252520value%2525253D%25252522h3%25252522%25252520style%2525253D%25252522rounded%2525253D0%2525253BwhiteSpace%2525253Dwrap%2525253Bhtml%2525253D1%2525253B%25252522%25252520vertex%2525253D%252525221%25252522%25252520parent%2525253D%252525221%25252522%2525253E%2525253CmxGeometry%25252520x%2525253D%25252522210%25252522%25252520y%2525253D%25252522150%25252522%25252520width%2525253D%2525252280%25252522%25252520height%2525253D%2525252230%25252522%25252520as%2525253D%25252522geometry%25252522%2525252F%2525253E%2525253C%2525252FmxCell%2525253E%2525253C%2525252Froot%2525253E%2525253C%2525252FmxGraphModel%2525253E%252526lt%25253B%25252Fspan%252526gt%25253B%252522%252520style%25253D%252522rounded%25253D0%25253BwhiteSpace%25253Dwrap%25253Bhtml%25253D1%25253B%252522%252520vertex%25253D%2525221%252522%252520parent%25253D%2525221%252522%25253E%25253CmxGeometry%252520x%25253D%252522210%252522%252520y%25253D%252522190%252522%252520width%25253D%252522120%252522%252520height%25253D%25252250%252522%252520as%25253D%252522geometry%252522%25252F%25253E%25253C%25252FmxCell%25253E%25253C%25252Froot%25253E%25253C%25252FmxGraphModel%25253E%2526lt%253B%252Fspan%2526gt%253B%2522%2520style%253D%2522rounded%253D0%253BwhiteSpace%253Dwrap%253Bhtml%253D1%253B%2522%2520vertex%253D%25221%2522%2520parent%253D%25221%2522%253E%253CmxGeometry%2520x%253D%2522335%2522%2520y%253D%2522640%2522%2520width%253D%252245%2522%2520height%253D%252220%2522%2520as%253D%2522geometry%2522%252F%253E%253C%252FmxCell%253E%253C%252Froot%253E%253C%252FmxGraphModel%253E%26lt%3B%2Fspan%26gt%3B%22%20style%3D%22rounded%3D0%3BwhiteSpace%3Dwrap%3Bhtml%3D1%3B%22%20vertex%3D%221%22%20parent%3D%221%22%3E%3CmxGeometry%20x%3D%22302.5%22%20y%3D%22750%22%20width%3D%2242.5%22%20height%3D%2220%22%20as%3D%22geometry%22%2F%3E%3C%2FmxCell%3E%3C%2Froot%3E%3C%2FmxGraphModel%3E&lt;/span&gt;" style="rounded=1;whiteSpace=wrap;html=1;" vertex="1" parent="1">
          <mxGeometry x="358.75" y="740" width="52.5" height="40" as="geometry" />
        </mxCell>
        <mxCell id="NriWCppynzRU80gm3Kc9-77" value="img&lt;span style=&quot;color: rgba(0, 0, 0, 0); font-family: monospace; font-size: 0px; text-align: start; text-wrap-mode: nowrap;&quot;&gt;%3CmxGraphModel%3E%3Croot%3E%3CmxCell%20id%3D%220%22%2F%3E%3CmxCell%20id%3D%221%22%20parent%3D%220%22%2F%3E%3CmxCell%20id%3D%222%22%20value%3D%22h3%26lt%3Bspan%20style%3D%26quot%3Bcolor%3A%20rgba(0%2C%200%2C%200%2C%200)%3B%20font-family%3A%20monospace%3B%20font-size%3A%200px%3B%20text-align%3A%20start%3B%20text-wrap-mode%3A%20nowrap%3B%26quot%3B%26gt%3B%253CmxGraphModel%253E%253Croot%253E%253CmxCell%2520id%253D%25220%2522%252F%253E%253CmxCell%2520id%253D%25221%2522%2520parent%253D%25220%2522%252F%253E%253CmxCell%2520id%253D%25222%2522%2520value%253D%2522h1%2526lt%253Bspan%2520style%253D%2526quot%253Bcolor%253A%2520rgba(0%252C%25200%252C%25200%252C%25200)%253B%2520font-family%253A%2520monospace%253B%2520font-size%253A%25200px%253B%2520text-align%253A%2520start%253B%2520text-wrap-mode%253A%2520nowrap%253B%2526quot%253B%2526gt%253B%25253CmxGraphModel%25253E%25253Croot%25253E%25253CmxCell%252520id%25253D%2525220%252522%25252F%25253E%25253CmxCell%252520id%25253D%2525221%252522%252520parent%25253D%2525220%252522%25252F%25253E%25253CmxCell%252520id%25253D%2525222%252522%252520value%25253D%252522p%252526lt%25253Bspan%252520style%25253D%252526quot%25253Bcolor%25253A%252520rgba(0%25252C%2525200%25252C%2525200%25252C%2525200)%25253B%252520font-family%25253A%252520monospace%25253B%252520font-size%25253A%2525200px%25253B%252520text-align%25253A%252520start%25253B%252520text-wrap-mode%25253A%252520nowrap%25253B%252526quot%25253B%252526gt%25253B%2525253CmxGraphModel%2525253E%2525253Croot%2525253E%2525253CmxCell%25252520id%2525253D%252525220%25252522%2525252F%2525253E%2525253CmxCell%25252520id%2525253D%252525221%25252522%25252520parent%2525253D%252525220%25252522%2525252F%2525253E%2525253CmxCell%25252520id%2525253D%252525222%25252522%25252520value%2525253D%25252522h3%25252522%25252520style%2525253D%25252522rounded%2525253D0%2525253BwhiteSpace%2525253Dwrap%2525253Bhtml%2525253D1%2525253B%25252522%25252520vertex%2525253D%252525221%25252522%25252520parent%2525253D%252525221%25252522%2525253E%2525253CmxGeometry%25252520x%2525253D%25252522210%25252522%25252520y%2525253D%25252522150%25252522%25252520width%2525253D%2525252280%25252522%25252520height%2525253D%2525252230%25252522%25252520as%2525253D%25252522geometry%25252522%2525252F%2525253E%2525253C%2525252FmxCell%2525253E%2525253C%2525252Froot%2525253E%2525253C%2525252FmxGraphModel%2525253E%252526lt%25253B%25252Fspan%252526gt%25253B%252522%252520style%25253D%252522rounded%25253D0%25253BwhiteSpace%25253Dwrap%25253Bhtml%25253D1%25253B%252522%252520vertex%25253D%2525221%252522%252520parent%25253D%2525221%252522%25253E%25253CmxGeometry%252520x%25253D%252522210%252522%252520y%25253D%252522190%252522%252520width%25253D%252522120%252522%252520height%25253D%25252250%252522%252520as%25253D%252522geometry%252522%25252F%25253E%25253C%25252FmxCell%25253E%25253C%25252Froot%25253E%25253C%25252FmxGraphModel%25253E%2526lt%253B%252Fspan%2526gt%253B%2526lt%253Bspan%2520style%253D%2526quot%253Bcolor%253A%2520rgba(0%252C%25200%252C%25200%252C%25200)%253B%2520font-family%253A%2520monospace%253B%2520font-size%253A%25200px%253B%2520text-align%253A%2520start%253B%2520text-wrap-mode%253A%2520nowrap%253B%2526quot%253B%2526gt%253B%25253CmxGraphModel%25253E%25253Croot%25253E%25253CmxCell%252520id%25253D%2525220%252522%25252F%25253E%25253CmxCell%252520id%25253D%2525221%252522%252520parent%25253D%2525220%252522%25252F%25253E%25253CmxCell%252520id%25253D%2525222%252522%252520value%25253D%252522p%252526lt%25253Bspan%252520style%25253D%252526quot%25253Bcolor%25253A%252520rgba(0%25252C%2525200%25252C%2525200%25252C%2525200)%25253B%252520font-family%25253A%252520monospace%25253B%252520font-size%25253A%2525200px%25253B%252520text-align%25253A%252520start%25253B%252520text-wrap-mode%25253A%252520nowrap%25253B%252526quot%25253B%252526gt%25253B%2525253CmxGraphModel%2525253E%2525253Croot%2525253E%2525253CmxCell%25252520id%2525253D%252525220%25252522%2525252F%2525253E%2525253CmxCell%25252520id%2525253D%252525221%25252522%25252520parent%2525253D%252525220%25252522%2525252F%2525253E%2525253CmxCell%25252520id%2525253D%252525222%25252522%25252520value%2525253D%25252522h3%25252522%25252520style%2525253D%25252522rounded%2525253D0%2525253BwhiteSpace%2525253Dwrap%2525253Bhtml%2525253D1%2525253B%25252522%25252520vertex%2525253D%252525221%25252522%25252520parent%2525253D%252525221%25252522%2525253E%2525253CmxGeometry%25252520x%2525253D%25252522210%25252522%25252520y%2525253D%25252522150%25252522%25252520width%2525253D%2525252280%25252522%25252520height%2525253D%2525252230%25252522%25252520as%2525253D%25252522geometry%25252522%2525252F%2525253E%2525253C%2525252FmxCell%2525253E%2525253C%2525252Froot%2525253E%2525253C%2525252FmxGraphModel%2525253E%252526lt%25253B%25252Fspan%252526gt%25253B%252522%252520style%25253D%252522rounded%25253D0%25253BwhiteSpace%25253Dwrap%25253Bhtml%25253D1%25253B%252522%252520vertex%25253D%2525221%252522%252520parent%25253D%2525221%252522%25253E%25253CmxGeometry%252520x%25253D%252522210%252522%252520y%25253D%252522190%252522%252520width%25253D%252522120%252522%252520height%25253D%25252250%252522%252520as%25253D%252522geometry%252522%25252F%25253E%25253C%25252FmxCell%25253E%25253C%25252Froot%25253E%25253C%25252FmxGraphModel%25253E%2526lt%253B%252Fspan%2526gt%253B%2522%2520style%253D%2522rounded%253D0%253BwhiteSpace%253Dwrap%253Bhtml%253D1%253B%2522%2520vertex%253D%25221%2522%2520parent%253D%25221%2522%253E%253CmxGeometry%2520x%253D%2522335%2522%2520y%253D%2522640%2522%2520width%253D%252245%2522%2520height%253D%252220%2522%2520as%253D%2522geometry%2522%252F%253E%253C%252FmxCell%253E%253C%252Froot%253E%253C%252FmxGraphModel%253E%26lt%3B%2Fspan%26gt%3B%26lt%3Bspan%20style%3D%26quot%3Bcolor%3A%20rgba(0%2C%200%2C%200%2C%200)%3B%20font-family%3A%20monospace%3B%20font-size%3A%200px%3B%20text-align%3A%20start%3B%20text-wrap-mode%3A%20nowrap%3B%26quot%3B%26gt%3B%253CmxGraphModel%253E%253Croot%253E%253CmxCell%2520id%253D%25220%2522%252F%253E%253CmxCell%2520id%253D%25221%2522%2520parent%253D%25220%2522%252F%253E%253CmxCell%2520id%253D%25222%2522%2520value%253D%2522h1%2526lt%253Bspan%2520style%253D%2526quot%253Bcolor%253A%2520rgba(0%252C%25200%252C%25200%252C%25200)%253B%2520font-family%253A%2520monospace%253B%2520font-size%253A%25200px%253B%2520text-align%253A%2520start%253B%2520text-wrap-mode%253A%2520nowrap%253B%2526quot%253B%2526gt%253B%25253CmxGraphModel%25253E%25253Croot%25253E%25253CmxCell%252520id%25253D%2525220%252522%25252F%25253E%25253CmxCell%252520id%25253D%2525221%252522%252520parent%25253D%2525220%252522%25252F%25253E%25253CmxCell%252520id%25253D%2525222%252522%252520value%25253D%252522p%252526lt%25253Bspan%252520style%25253D%252526quot%25253Bcolor%25253A%252520rgba(0%25252C%2525200%25252C%2525200%25252C%2525200)%25253B%252520font-family%25253A%252520monospace%25253B%252520font-size%25253A%2525200px%25253B%252520text-align%25253A%252520start%25253B%252520text-wrap-mode%25253A%252520nowrap%25253B%252526quot%25253B%252526gt%25253B%2525253CmxGraphModel%2525253E%2525253Croot%2525253E%2525253CmxCell%25252520id%2525253D%252525220%25252522%2525252F%2525253E%2525253CmxCell%25252520id%2525253D%252525221%25252522%25252520parent%2525253D%252525220%25252522%2525252F%2525253E%2525253CmxCell%25252520id%2525253D%252525222%25252522%25252520value%2525253D%25252522h3%25252522%25252520style%2525253D%25252522rounded%2525253D0%2525253BwhiteSpace%2525253Dwrap%2525253Bhtml%2525253D1%2525253B%25252522%25252520vertex%2525253D%252525221%25252522%25252520parent%2525253D%252525221%25252522%2525253E%2525253CmxGeometry%25252520x%2525253D%25252522210%25252522%25252520y%2525253D%25252522150%25252522%25252520width%2525253D%2525252280%25252522%25252520height%2525253D%2525252230%25252522%25252520as%2525253D%25252522geometry%25252522%2525252F%2525253E%2525253C%2525252FmxCell%2525253E%2525253C%2525252Froot%2525253E%2525253C%2525252FmxGraphModel%2525253E%252526lt%25253B%25252Fspan%252526gt%25253B%252522%252520style%25253D%252522rounded%25253D0%25253BwhiteSpace%25253Dwrap%25253Bhtml%25253D1%25253B%252522%252520vertex%25253D%2525221%252522%252520parent%25253D%2525221%252522%25253E%25253CmxGeometry%252520x%25253D%252522210%252522%252520y%25253D%252522190%252522%252520width%25253D%252522120%252522%252520height%25253D%25252250%252522%252520as%25253D%252522geometry%252522%25252F%25253E%25253C%25252FmxCell%25253E%25253C%25252Froot%25253E%25253C%25252FmxGraphModel%25253E%2526lt%253B%252Fspan%2526gt%253B%2526lt%253Bspan%2520style%253D%2526quot%253Bcolor%253A%2520rgba(0%252C%25200%252C%25200%252C%25200)%253B%2520font-family%253A%2520monospace%253B%2520font-size%253A%25200px%253B%2520text-align%253A%2520start%253B%2520text-wrap-mode%253A%2520nowrap%253B%2526quot%253B%2526gt%253B%25253CmxGraphModel%25253E%25253Croot%25253E%25253CmxCell%252520id%25253D%2525220%252522%25252F%25253E%25253CmxCell%252520id%25253D%2525221%252522%252520parent%25253D%2525220%252522%25252F%25253E%25253CmxCell%252520id%25253D%2525222%252522%252520value%25253D%252522p%252526lt%25253Bspan%252520style%25253D%252526quot%25253Bcolor%25253A%252520rgba(0%25252C%2525200%25252C%2525200%25252C%2525200)%25253B%252520font-family%25253A%252520monospace%25253B%252520font-size%25253A%2525200px%25253B%252520text-align%25253A%252520start%25253B%252520text-wrap-mode%25253A%252520nowrap%25253B%252526quot%25253B%252526gt%25253B%2525253CmxGraphModel%2525253E%2525253Croot%2525253E%2525253CmxCell%25252520id%2525253D%252525220%25252522%2525252F%2525253E%2525253CmxCell%25252520id%2525253D%252525221%25252522%25252520parent%2525253D%252525220%25252522%2525252F%2525253E%2525253CmxCell%25252520id%2525253D%252525222%25252522%25252520value%2525253D%25252522h3%25252522%25252520style%2525253D%25252522rounded%2525253D0%2525253BwhiteSpace%2525253Dwrap%2525253Bhtml%2525253D1%2525253B%25252522%25252520vertex%2525253D%252525221%25252522%25252520parent%2525253D%252525221%25252522%2525253E%2525253CmxGeometry%25252520x%2525253D%25252522210%25252522%25252520y%2525253D%25252522150%25252522%25252520width%2525253D%2525252280%25252522%25252520height%2525253D%2525252230%25252522%25252520as%2525253D%25252522geometry%25252522%2525252F%2525253E%2525253C%2525252FmxCell%2525253E%2525253C%2525252Froot%2525253E%2525253C%2525252FmxGraphModel%2525253E%252526lt%25253B%25252Fspan%252526gt%25253B%252522%252520style%25253D%252522rounded%25253D0%25253BwhiteSpace%25253Dwrap%25253Bhtml%25253D1%25253B%252522%252520vertex%25253D%2525221%252522%252520parent%25253D%2525221%252522%25253E%25253CmxGeometry%252520x%25253D%252522210%252522%252520y%25253D%252522190%252522%252520width%25253D%252522120%252522%252520height%25253D%25252250%252522%252520as%25253D%252522geometry%252522%25252F%25253E%25253C%25252FmxCell%25253E%25253C%25252Froot%25253E%25253C%25252FmxGraphModel%25253E%2526lt%253B%252Fspan%2526gt%253B%2522%2520style%253D%2522rounded%253D0%253BwhiteSpace%253Dwrap%253Bhtml%253D1%253B%2522%2520vertex%253D%25221%2522%2520parent%253D%25221%2522%253E%253CmxGeometry%2520x%253D%2522335%2522%2520y%253D%2522640%2522%2520width%253D%252245%2522%2520height%253D%252220%2522%2520as%253D%2522geometry%2522%252F%253E%253C%252FmxCell%253E%253C%252Froot%253E%253C%252FmxGraphModel%253E%26lt%3B%2Fspan%26gt%3B%22%20style%3D%22rounded%3D0%3BwhiteSpace%3Dwrap%3Bhtml%3D1%3B%22%20vertex%3D%221%22%20parent%3D%221%22%3E%3CmxGeometry%20x%3D%22302.5%22%20y%3D%22750%22%20width%3D%2242.5%22%20height%3D%2220%22%20as%3D%22geometry%22%2F%3E%3C%2FmxCell%3E%3C%2Froot%3E%3C%2FmxGraphModel%3E&lt;/span&gt;" style="rounded=1;whiteSpace=wrap;html=1;" vertex="1" parent="1">
          <mxGeometry x="358.75" y="810" width="52.5" height="40" as="geometry" />
        </mxCell>
        <mxCell id="NriWCppynzRU80gm3Kc9-81" value="h3" style="rounded=0;whiteSpace=wrap;html=1;" vertex="1" parent="1">
          <mxGeometry x="302.5" y="740" width="30" height="10" as="geometry" />
        </mxCell>
        <mxCell id="NriWCppynzRU80gm3Kc9-82" value="h3" style="rounded=0;whiteSpace=wrap;html=1;" vertex="1" parent="1">
          <mxGeometry x="300" y="810" width="30" height="10" as="geometry" />
        </mxCell>
        <mxCell id="NriWCppynzRU80gm3Kc9-83" value="p" style="rounded=0;whiteSpace=wrap;html=1;" vertex="1" parent="1">
          <mxGeometry x="300" y="830" width="41.25" height="20" as="geometry" />
        </mxCell>
        <mxCell id="NriWCppynzRU80gm3Kc9-84" value="p" style="rounded=0;whiteSpace=wrap;html=1;" vertex="1" parent="1">
          <mxGeometry x="300" y="760" width="41.25" height="20" as="geometry" />
        </mxCell>
        <mxCell id="NriWCppynzRU80gm3Kc9-86" value="" style="rounded=0;whiteSpace=wrap;html=1;" vertex="1" parent="1">
          <mxGeometry x="297.5" y="877.5" width="120" height="72.5" as="geometry" />
        </mxCell>
        <mxCell id="NriWCppynzRU80gm3Kc9-87" value="img" style="rounded=1;whiteSpace=wrap;html=1;" vertex="1" parent="1">
          <mxGeometry x="318.75" y="920" width="77.5" height="30" as="geometry" />
        </mxCell>
        <mxCell id="NriWCppynzRU80gm3Kc9-88" value="section" style="rounded=0;whiteSpace=wrap;html=1;" vertex="1" parent="1">
          <mxGeometry x="297.5" y="877.5" width="40" height="30" as="geometry" />
        </mxCell>
        <mxCell id="NriWCppynzRU80gm3Kc9-89" value="img" style="rounded=1;whiteSpace=wrap;html=1;" vertex="1" parent="1">
          <mxGeometry x="225" y="490" width="60" height="40" as="geometry" />
        </mxCell>
        <mxCell id="NriWCppynzRU80gm3Kc9-90" value="img" style="rounded=1;whiteSpace=wrap;html=1;" vertex="1" parent="1">
          <mxGeometry x="474" y="490" width="60" height="40" as="geometry" />
        </mxCell>
        <mxCell id="NriWCppynzRU80gm3Kc9-91" value="img" style="rounded=1;whiteSpace=wrap;html=1;" vertex="1" parent="1">
          <mxGeometry x="342.5" y="490" width="60" height="40" as="geometry" />
        </mxCell>
        <mxCell id="NriWCppynzRU80gm3Kc9-92" value="footer" style="rounded=0;whiteSpace=wrap;html=1;" vertex="1" parent="1">
          <mxGeometry x="277.5" y="960" width="162.5" height="20" as="geometry" />
        </mxCell>
        <mxCell id="NriWCppynzRU80gm3Kc9-93" style="edgeStyle=orthogonalEdgeStyle;rounded=0;orthogonalLoop=1;jettySize=auto;html=1;exitX=0.75;exitY=0;exitDx=0;exitDy=0;entryX=0.5;entryY=0;entryDx=0;entryDy=0;" edge="1" parent="1" source="NriWCppynzRU80gm3Kc9-69" target="NriWCppynzRU80gm3Kc9-69">
          <mxGeometry relative="1" as="geometry" />
        </mxCell>
        <mxCell id="NriWCppynzRU80gm3Kc9-96" value="" style="rounded=0;whiteSpace=wrap;html=1;" vertex="1" parent="1">
          <mxGeometry x="276.25" y="690" width="163.75" height="30" as="geometry" />
        </mxCell>
      </root>
    </mxGraphModel>
  </diagram>
</mxfile>
